# xmcd CD database file
#
# Track frame offsets:
#	205
#	13595
#	28840
#	40257
#	54452
#	67870
#	86237
#	95490
#	108175
#	123565
#	132437
#	149467
#	165220
#	179610
#	191347
#
# Disc length: 2840 seconds
#
# Revision: 0
# Processed by: cddbd v1.4PL0 Copyright (c) Steve Scherf et al.
# Submitted via: CDex 1.50beta9
#
DISCID=cb0b160f
DTITLE=BIG TOM - OUT ON THEIR OWN
DYEAR=1900
DGENRE=Country
TTITLE0=My Own Lisnagreive
TTITLE1=First Fall Of Snow
TTITLE2=Mary Claire Mulvina Rebecca Jane
TTITLE3=Blue Eyes Crying In The Rain
TTITLE4=BJ The D.J
TTITLE5=Galway Bay
TTITLE6=Deep Water
TTITLE7=THe Day That I Left Castlebar
TTITLE8=The Banks Of The Ohio
TTITLE9=I Need Your Love Tonight - Ginger Morgan
TTITLE10=CAn't Hold The Years Back
TTITLE11=Goodnight Dallas - Ronnie Duffy
TTITLE12=Home To Say Goodbye
TTITLE13=Pat The Baker - Henry McMahon
TTITLE14=Mainliners Magic Mix A.Old Love Letters B. At The Hop C. Ashes Of Love D. Help Yourself E . I love ou STill
EXTD=
EXTT0=
EXTT1=
EXTT2=
EXTT3=
EXTT4=
EXTT5=
EXTT6=
EXTT7=
EXTT8=
EXTT9=
EXTT10=
EXTT11=
EXTT12=
EXTT13=
EXTT14=
PLAYORDER=
